<?xml version="1.0" encoding="UTF-8"?><svg xmlns="http://www.w3.org/2000/svg" xmlns:xlink="http://www.w3.org/1999/xlink" version="1.1" id="BU_x5F_Wort-Bildmarke" x="0px" y="0px" viewBox="0 0 198.4252 90.7087" style="enable-background:new 0 0 198.4252 90.7087;" xml:space="preserve"><style type="text/css">.st0{fill:#63AE26;}</style><g id="Logo"><g id="Wortmarke_16_"><g id="Wortmarke_17_"><path d="M11.2569,54.5738c0.929,0.5139,1.6575,1.2386,2.1865,2.1751c0.5285,0.9365,0.7928,2.0163,0.7928,3.2398 s-0.2643,2.3075-0.7928,3.2511c-0.529,0.9441-1.2575,1.6731-2.1865,2.1865c-0.929,0.5139-1.9822,0.7701-3.1608,0.7701 c-0.8306,0-1.5894-0.1437-2.2768-0.4302c-0.6874-0.287-1.2651-0.7172-1.7331-1.2916v1.5634H1.3901v-16.811h2.8318v6.185 c0.4836-0.5285,1.0538-0.929,1.7109-1.2008s1.3781-0.4075,2.1633-0.4075C9.2747,53.8036,10.3279,54.0604,11.2569,54.5738z M10.3506,62.7301c0.6718-0.6945,1.0084-1.6088,1.0084-2.7415s-0.3366-2.0465-1.0084-2.7415 c-0.6723-0.6945-1.5294-1.0419-2.5713-1.0419c-0.6798,0-1.2916,0.1551-1.8352,0.4642C5.4,56.9791,4.9698,57.4211,4.6526,57.9951 C4.3354,58.569,4.177,59.2337,4.177,59.9887c0,0.7555,0.1584,1.4201,0.4756,1.9936c0.3172,0.5744,0.7474,1.0164,1.2916,1.3256 c0.5437,0.3097,1.1554,0.4647,1.8352,0.4647C8.8213,63.7726,9.6784,63.4251,10.3506,62.7301z"/><path d="M24.1597,53.8036v2.6961c-0.2421-0.0454-0.4609-0.0681-0.6571-0.0681c-1.1029,0-1.9638,0.321-2.5831,0.963 c-0.6193,0.642-0.929,1.5672-0.929,2.7755v5.8678h-2.8318V53.9393h2.6961v1.7671 C20.6703,54.4381,22.1051,53.8036,24.1597,53.8036z"/><path d="M35.7144,55.0834c0.9436,0.8538,1.4159,2.1411,1.4159,3.8633v7.0913h-2.6734v-1.4726 c-0.3475,0.529-0.842,0.9327-1.484,1.2121c-0.642,0.2794-1.4159,0.4189-2.3222,0.4189c-0.9063,0-1.6995-0.1551-2.3789-0.4642 c-0.6798-0.3092-1.205-0.7399-1.5747-1.2916c-0.3702-0.5512-0.555-1.1743-0.555-1.8688c0-1.0878,0.4037-1.96,1.2121-2.6172 c0.8075-0.6571,2.0801-0.9852,3.8175-0.9852h3.1268v-0.1815c0-0.8457-0.2534-1.4953-0.7592-1.9482 c-0.5063-0.4534-1.2575-0.6798-2.2541-0.6798c-0.6798,0-1.3483,0.1059-2.0054,0.3172c-0.6571,0.2118-1.2121,0.5063-1.665,0.8836 l-1.1105-2.0617c0.6344-0.4832,1.397-0.8533,2.2886-1.1105c0.8911-0.2562,1.8352-0.3848,2.8318-0.3848 C33.4069,53.8036,34.7703,54.2305,35.7144,55.0834z M33.1313,63.6478c0.5512-0.3248,0.9403-0.789,1.1672-1.3932v-1.405h-2.923 c-1.631,0-2.447,0.5366-2.447,1.6088c0,0.5134,0.2042,0.9214,0.6117,1.2235c0.408,0.3021,0.9743,0.4529,1.6995,0.4529 C31.9494,64.1347,32.58,63.9725,33.1313,63.6478z"/><path d="M51.2342,55.1401c0.9209,0.8916,1.3819,2.2129,1.3819,3.965v6.9329h-2.8318v-6.5703 c0-1.0571-0.2496-1.8541-0.7479-2.3902c-0.4983-0.5361-1.2084-0.8042-2.1297-0.8042c-1.0419,0-1.8655,0.3134-2.4697,0.9398 c-0.6042,0.6273-0.9063,1.5294-0.9063,2.7074v6.1174h-2.8318V53.9393h2.6961v1.5634c0.468-0.5588,1.0571-0.9814,1.7671-1.2689 c0.7096-0.2865,1.51-0.4302,2.4016-0.4302C49.0893,53.8036,50.3128,54.249,51.2342,55.1401z"/><path d="M68.4069,49.2269v16.811h-2.7188v-1.5634c-0.468,0.5744-1.0457,1.0046-1.7331,1.2916 c-0.6874,0.2865-1.4461,0.4302-2.2768,0.4302c-1.1634,0-2.2092-0.2562-3.1381-0.7701c-0.929-0.5134-1.6579-1.2424-2.1865-2.1865 c-0.5285-0.9436-0.7928-2.0276-0.7928-3.2511s0.2643-2.3032,0.7928-3.2398s1.2575-1.6612,2.1865-2.1751 c0.929-0.5134,1.9747-0.7701,3.1381-0.7701c0.8004,0,1.5327,0.1357,2.1973,0.4075c0.6647,0.2718,1.231,0.6798,1.6995,1.2235 v-6.2077H68.4069z M63.8533,63.3078c0.5437-0.3092,0.9739-0.7512,1.2911-1.3256c0.3172-0.5734,0.4761-1.2381,0.4761-1.9936 c0-0.755-0.1588-1.4197-0.4761-1.9936c-0.3172-0.5739-0.7474-1.0159-1.2911-1.3256c-0.5441-0.3092-1.1559-0.4642-1.8352-0.4642 c-0.6798,0-1.2916,0.1551-1.8352,0.4642c-0.5437,0.3097-0.9743,0.7517-1.2916,1.3256c-0.3172,0.5739-0.4756,1.2386-0.4756,1.9936 c0,0.7555,0.1584,1.4201,0.4756,1.9936c0.3172,0.5744,0.7479,1.0164,1.2916,1.3256c0.5437,0.3097,1.1554,0.4647,1.8352,0.4647 C62.6975,63.7726,63.3092,63.6175,63.8533,63.3078z"/><path d="M90.2587,53.9393V66.038h-2.6961v-1.5407c-0.4534,0.5437-1.0197,0.963-1.6995,1.2575 c-0.6793,0.2945-1.4121,0.4415-2.1973,0.4415c-1.6163,0-2.889-0.4491-3.8179-1.3478c-0.9285-0.8987-1.3932-2.2319-1.3932-3.999 v-6.9102h2.8323v6.5254c0,1.0873,0.2454,1.8995,0.7361,2.4351c0.4907,0.5366,1.1894,0.8046,2.0957,0.8046 c1.0117,0,1.8163-0.3134,2.4129-0.9403s0.8949-1.5294,0.8949-2.7074v-6.1174H90.2587z"/><path d="M104.1696,55.1401c0.9209,0.8916,1.3819,2.2129,1.3819,3.965v6.9329h-2.8318v-6.5703 c0-1.0571-0.2496-1.8541-0.7479-2.3902c-0.4983-0.5361-1.2084-0.8042-2.1297-0.8042c-1.0419,0-1.8655,0.3134-2.4697,0.9398 c-0.6042,0.6273-0.9063,1.5294-0.9063,2.7074v6.1174h-2.8318V53.9393h2.6961v1.5634c0.468-0.5588,1.0571-0.9814,1.7671-1.2689 c0.7096-0.2865,1.51-0.4302,2.4016-0.4302C102.0247,53.8036,103.2482,54.249,104.1696,55.1401z"/><path d="M108.9492,51.4588c-0.3475-0.3248-0.521-0.729-0.521-1.2121c0-0.4836,0.1735-0.8874,0.521-1.2121 c0.3475-0.3248,0.7782-0.4874,1.2916-0.4874c0.5134,0,0.9436,0.1551,1.2916,0.4647c0.347,0.3097,0.521,0.6987,0.521,1.1667 c0,0.4983-0.1697,0.9176-0.5096,1.2575c-0.3399,0.3394-0.7744,0.5096-1.3029,0.5096 C109.7274,51.9457,109.2967,51.7836,108.9492,51.4588z M108.8135,53.9393h2.8318V66.038h-2.8318V53.9393z"/><path d="M128.049,53.9393l-5.1884,12.0987h-2.9226l-5.1884-12.0987h2.9457l3.7607,8.9719l3.8742-8.9719H128.049z"/><path d="M141.3141,60.8949h-9.4929c0.1659,0.8916,0.6004,1.5974,1.3024,2.1184c0.7025,0.521,1.5747,0.7815,2.6172,0.7815 c1.3289,0,2.4243-0.4378,3.2852-1.3138l1.518,1.7445c-0.5441,0.6496-1.2315,1.1407-2.0617,1.4726 c-0.8311,0.3323-1.7676,0.4983-2.8096,0.4983c-1.3294,0-2.4999-0.2638-3.5116-0.7928c-1.0121-0.5285-1.7941-1.2646-2.3453-2.2092 c-0.5512-0.9436-0.8268-2.0125-0.8268-3.2057c0-1.1781,0.2681-2.239,0.8041-3.183c0.5361-0.9441,1.2802-1.6802,2.2319-2.2092 c0.9516-0.5285,2.0238-0.7928,3.2171-0.7928c1.1781,0,2.2319,0.2605,3.1608,0.7815s1.6537,1.2537,2.1751,2.1978 c0.521,0.9441,0.7815,2.0357,0.7815,3.2738C141.3595,60.2534,141.3444,60.5323,141.3141,60.8949z M132.9426,56.8737 c-0.6269,0.5361-1.0084,1.25-1.1441,2.1406h6.8648c-0.121-0.8755-0.4912-1.5856-1.11-2.1297 c-0.6198-0.5437-1.3899-0.8155-2.3113-0.8155C134.3358,56.0691,133.569,56.3376,132.9426,56.8737z"/><path d="M151.3062,53.8036v2.6961c-0.2421-0.0454-0.4609-0.0681-0.6571-0.0681c-1.1029,0-1.9638,0.321-2.5831,0.963 c-0.6193,0.642-0.929,1.5672-0.929,2.7755v5.8678h-2.8318V53.9393h2.6961v1.7671 C147.8168,54.4381,149.2516,53.8036,151.3062,53.8036z"/><path d="M155.4072,65.8115c-0.9365-0.2567-1.6844-0.5815-2.2432-0.9743l1.0878-2.1524c0.5437,0.3626,1.197,0.6533,1.9595,0.8722 c0.7625,0.2194,1.5142,0.3286,2.2545,0.3286c1.6915,0,2.5373-0.4453,2.5373-1.3365c0-0.4226-0.2151-0.7176-0.6458-0.8836 c-0.4302-0.1664-1.1214-0.3248-2.073-0.4761c-0.9966-0.1508-1.8087-0.3248-2.4356-0.521 c-0.6269-0.1962-1.1705-0.5399-1.631-1.0311c-0.4609-0.4907-0.6912-1.1743-0.6912-2.0503c0-1.1478,0.4794-2.065,1.4386-2.7528 c0.9592-0.6869,2.2545-1.0306,3.8855-1.0306c0.8306,0,1.6617,0.0945,2.4923,0.2832c0.8306,0.1891,1.5104,0.4416,2.039,0.7588 l-1.0873,2.1524c-1.0273-0.6037-2.1827-0.9063-3.4662-0.9063c-0.8311,0-1.4617,0.1248-1.892,0.3739 c-0.4307,0.2491-0.6458,0.5777-0.6458,0.9857c0,0.4529,0.2302,0.7739,0.6912,0.9625c0.4605,0.1891,1.1743,0.3664,2.1411,0.5328 c0.9663,0.1508,1.7591,0.3248,2.3789,0.521c0.6188,0.1962,1.1516,0.529,1.597,0.997c0.4453,0.468,0.6685,1.1327,0.6685,1.9936 c0,1.1327-0.4907,2.039-1.4726,2.7188c-0.9819,0.6798-2.3188,1.0192-4.0103,1.0192 C157.3024,66.1964,156.3437,66.0682,155.4072,65.8115z"/><path d="M167.1431,51.4588c-0.3475-0.3248-0.521-0.729-0.521-1.2121c0-0.4836,0.1735-0.8874,0.521-1.2121 c0.3475-0.3248,0.7782-0.4874,1.2916-0.4874s0.9436,0.1551,1.2915,0.4647c0.347,0.3097,0.521,0.6987,0.521,1.1667 c0,0.4983-0.1697,0.9176-0.5096,1.2575c-0.3399,0.3394-0.7744,0.5096-1.3029,0.5096 C167.9212,51.9457,167.4905,51.7836,167.1431,51.4588z M167.0074,53.9393h2.8318V66.038h-2.8318V53.9393z"/><path d="M181.9043,65.3809c-0.3328,0.2718-0.7366,0.4761-1.2121,0.6117c-0.4761,0.1362-0.9781,0.2038-1.5067,0.2038 c-1.3294,0-2.3562-0.347-3.0814-1.0419c-0.7252-0.6945-1.0873-1.7066-1.0873-3.036v-5.8229h-1.9941v-2.2654h1.9941v-2.7642 h2.8318v2.7642h3.2398v2.2654h-3.2398v5.7548c0,0.5891,0.1432,1.0386,0.4307,1.3483c0.2865,0.3097,0.702,0.4642,1.2462,0.4642 c0.634,0,1.1625-0.1659,1.5856-0.4983L181.9043,65.3809z"/><path d="M196.9825,53.9393l-5.664,13.073c-0.529,1.3138-1.1705,2.239-1.926,2.7755c-0.7554,0.5356-1.6688,0.8041-2.7415,0.8041 c-0.6042,0-1.2008-0.0983-1.7898-0.2945c-0.5891-0.1967-1.0722-0.4685-1.4499-0.8155l1.1332-2.0848 c0.2718,0.2567,0.5923,0.4609,0.9625,0.6117c0.3702,0.1508,0.7441,0.2269,1.1218,0.2269c0.4983,0,0.9096-0.1286,1.2344-0.3853 c0.3248-0.2572,0.6231-0.6874,0.8949-1.2916l0.2042-0.4756l-5.2792-12.144h2.9457l3.8061,8.9492l3.8288-8.9492H196.9825z"/></g><g><path d="M57.4566,85.4855c-0.5898-0.3367-1.0534-0.805-1.3901-1.4048c-0.3373-0.5998-0.5057-1.2762-0.5057-2.0297 c0-0.7529,0.1684-1.4293,0.5057-2.0291c0.3367-0.5998,0.8003-1.068,1.3901-1.4053c0.5893-0.3367,1.251-0.5051,1.9847-0.5051 c0.7331,0,1.3948,0.1684,1.9847,0.5051c0.5898,0.3373,1.0528,0.8056,1.3901,1.4053c0.3367,0.5998,0.5057,1.2762,0.5057,2.0291 c0,0.7535-0.1689,1.4299-0.5057,2.0297c-0.3373,0.5998-0.8003,1.068-1.3901,1.4048c-0.5898,0.3373-1.2516,0.5057-1.9847,0.5057 C58.7076,85.9912,58.0459,85.8228,57.4566,85.4855z M61.0396,84.9056c0.4706-0.2771,0.8424-0.6641,1.1148-1.1598 c0.2724-0.4951,0.4092-1.0604,0.4092-1.6947s-0.1368-1.199-0.4092-1.6947c-0.2724-0.4957-0.6442-0.8821-1.1148-1.1598 c-0.4712-0.2771-1.0037-0.4162-1.5983-0.4162c-0.5945,0-1.1277,0.1391-1.5983,0.4162c-0.4706,0.2777-0.8424,0.6641-1.1148,1.1598 c-0.273,0.4957-0.4092,1.0604-0.4092,1.6947s0.1362,1.1996,0.4092,1.6947c0.2724,0.4957,0.6442,0.8827,1.1148,1.1598 c0.4706,0.2777,1.0037,0.4162,1.5983,0.4162C60.0358,85.3218,60.5684,85.1833,61.0396,84.9056z"/><path d="M66.6516,77.0412v1.1294h2.4827v0.6395h-2.4675v7.1214h-0.7436v-7.1214h-1.427v-0.6395h1.427v-1.189 c0-0.6542,0.1882-1.1744,0.5653-1.5608c0.3765-0.387,0.9067-0.5799,1.5907-0.5799c0.297,0,0.5822,0.0421,0.8547,0.1263 c0.2724,0.0842,0.4981,0.2105,0.6764,0.3788l-0.297,0.5653c-0.3174-0.2876-0.719-0.4314-1.2043-0.4314 C67.1374,75.4797,66.6516,76,66.6516,77.0412z"/><path d="M79.6008,78.8475c0.5156,0.4905,0.7734,1.2113,0.7734,2.163v4.9211h-0.7138V84.549 c-0.2479,0.456-0.6097,0.8102-1.0856,1.0628c-0.4753,0.2531-1.0458,0.3794-1.7093,0.3794c-0.8623,0-1.5439-0.2034-2.0443-0.6097 c-0.501-0.4063-0.7512-0.9418-0.7512-1.6059c0-0.6442,0.2309-1.1668,0.6916-1.5684c0.4606-0.401,1.1966-0.6021,2.208-0.6021 h2.661v-0.6243c0-0.7231-0.1958-1.2732-0.5869-1.6503c-0.3917-0.3765-0.9646-0.5647-1.7175-0.5647 c-0.5156,0-1.0084,0.0889-1.479,0.2677c-0.4712,0.1783-0.8699,0.4162-1.1972,0.7132l-0.3712-0.5349 c0.3864-0.3472,0.8523-0.6173,1.3972-0.8102c0.5448-0.1935,1.1154-0.29,1.7099-0.29 C78.3468,78.1115,79.0852,78.3565,79.6008,78.8475z M78.6122,84.9354c0.4507-0.2976,0.7904-0.7284,1.0183-1.2937V82.185h-2.6464 c-0.7635,0-1.3159,0.1391-1.6573,0.4162c-0.342,0.2777-0.5133,0.6594-0.5133,1.1446c0,0.5057,0.1882,0.9049,0.5653,1.1972 c0.3765,0.2923,0.9067,0.4384,1.5907,0.4384C77.6138,85.3815,78.1609,85.233,78.6122,84.9354z"/><path d="M89.4429,78.6166c0.5846,0.3373,1.0429,0.8032,1.375,1.3978c0.332,0.5945,0.4981,1.2738,0.4981,2.0367 c0,0.7635-0.166,1.4451-0.4981,2.0443c-0.332,0.5998-0.7904,1.0657-1.375,1.3977c-0.5852,0.332-1.2393,0.4981-1.9625,0.4981 c-0.684,0-1.3036-0.1613-1.8584-0.4835c-0.5554-0.3221-0.9862-0.7705-1.2937-1.3451v4.6533h-0.743V78.1706h0.7138v1.8292 c0.3069-0.5951,0.7407-1.0581,1.3007-1.3901s1.1867-0.4981,1.8806-0.4981C88.2035,78.1115,88.8577,78.2799,89.4429,78.6166z M89.0413,84.9056c0.4759-0.2771,0.85-0.6641,1.1224-1.1598c0.273-0.4951,0.4092-1.0604,0.4092-1.6947 s-0.1362-1.199-0.4092-1.6947c-0.2724-0.4957-0.6466-0.8821-1.1224-1.1598c-0.4753-0.2771-1.0107-0.4162-1.6053-0.4162 c-0.5951,0-1.1277,0.1391-1.5983,0.4162c-0.4712,0.2777-0.843,0.6641-1.1154,1.1598c-0.2724,0.4957-0.4086,1.0604-0.4086,1.6947 s0.1362,1.1996,0.4086,1.6947c0.2724,0.4957,0.6442,0.8827,1.1154,1.1598c0.4706,0.2777,1.0032,0.4162,1.5983,0.4162 C88.0305,85.3218,88.566,85.1833,89.0413,84.9056z"/><path d="M99.627,78.6166c0.5846,0.3373,1.0429,0.8032,1.3749,1.3978c0.332,0.5945,0.4981,1.2738,0.4981,2.0367 c0,0.7635-0.166,1.4451-0.4981,2.0443c-0.332,0.5998-0.7904,1.0657-1.3749,1.3977c-0.5852,0.332-1.2393,0.4981-1.9625,0.4981 c-0.684,0-1.3036-0.1613-1.8584-0.4835c-0.5554-0.3221-0.9862-0.7705-1.2937-1.3451v4.6533h-0.743V78.1706h0.7138v1.8292 c0.3069-0.5951,0.7407-1.0581,1.3007-1.3901c0.56-0.332,1.1867-0.4981,1.8806-0.4981 C98.3876,78.1115,99.0418,78.2799,99.627,78.6166z M99.2253,84.9056c0.4759-0.2771,0.85-0.6641,1.1224-1.1598 c0.273-0.4951,0.4092-1.0604,0.4092-1.6947s-0.1362-1.199-0.4092-1.6947c-0.2724-0.4957-0.6466-0.8821-1.1224-1.1598 c-0.4753-0.2771-1.0107-0.4162-1.6053-0.4162c-0.5951,0-1.1277,0.1391-1.5983,0.4162c-0.4712,0.2777-0.843,0.6641-1.1154,1.1598 c-0.2724,0.4957-0.4086,1.0604-0.4086,1.6947s0.1362,1.1996,0.4086,1.6947c0.2724,0.4957,0.6442,0.8827,1.1154,1.1598 c0.4706,0.2777,1.0032,0.4162,1.5983,0.4162C98.2146,85.3218,98.7501,85.1833,99.2253,84.9056z"/><path d="M103.9529,74.8998h0.743v11.0317h-0.743V74.8998z"/><path d="M107.9222,76.1117c-0.1187-0.114-0.1783-0.2549-0.1783-0.4238c0-0.1684,0.0596-0.3122,0.1783-0.4308 c0.1193-0.1193,0.2625-0.1783,0.4314-0.1783c0.1684,0,0.3122,0.0567,0.4308,0.1707c0.1193,0.114,0.1783,0.2555,0.1783,0.4238 c0,0.1684-0.059,0.3122-0.1783,0.4308c-0.1187,0.1193-0.2625,0.1789-0.4308,0.1789 C108.1847,76.283,108.0415,76.2257,107.9222,76.1117z M107.9819,78.1706h0.743v7.761h-0.743V78.1706z"/><path d="M118.567,82.2294h-6.6754c0.0199,0.605,0.1736,1.1429,0.4612,1.6135c0.287,0.4706,0.6764,0.8348,1.1668,1.0926 c0.4905,0.2578,1.0429,0.3864,1.6579,0.3864c0.5057,0,0.9739-0.0912,1.4048-0.2748c0.4314-0.1836,0.7904-0.4536,1.078-0.8102 l0.4314,0.4905c-0.3373,0.4063-0.7611,0.7185-1.2715,0.9365c-0.5103,0.2181-1.0628,0.3274-1.6579,0.3274 c-0.7728,0-1.4621-0.1684-2.0665-0.5057c-0.6045-0.3367-1.0774-0.8026-1.4194-1.3977c-0.342-0.5945-0.5133-1.2732-0.5133-2.0367 c0-0.7529,0.1613-1.4293,0.4835-2.0291c0.3215-0.5998,0.7652-1.068,1.3305-1.4053c0.5647-0.3367,1.199-0.5051,1.9028-0.5051 s1.3358,0.166,1.8958,0.4981c0.5594,0.332,1.0008,0.795,1.3229,1.3901c0.3221,0.5945,0.4835,1.2686,0.4835,2.0215 L118.567,82.2294z M113.408,79.1299c-0.4361,0.2426-0.7857,0.5846-1.0482,1.026c-0.2625,0.4408-0.4139,0.9388-0.453,1.4942h5.947 c-0.0298-0.5554-0.1789-1.0505-0.446-1.4872c-0.2677-0.4361-0.6197-0.7775-1.0558-1.0254 c-0.4361-0.2479-0.9272-0.3718-1.472-0.3718S113.8441,78.8873,113.408,79.1299z"/><path d="M127.9326,74.8998v11.0317h-0.7284V84.103c-0.3075,0.6045-0.7383,1.0704-1.2931,1.3972 c-0.5554,0.3274-1.185,0.4911-1.8882,0.4911c-0.7237,0-1.3779-0.1684-1.9625-0.5057c-0.5852-0.3367-1.0435-0.8026-1.3755-1.3977 c-0.332-0.5945-0.4981-1.2732-0.4981-2.0367c0-0.7629,0.166-1.4445,0.4981-2.0443c0.332-0.5992,0.7904-1.0651,1.3755-1.3972 c0.5846-0.332,1.2387-0.4981,1.9625-0.4981c0.6933,0,1.3153,0.1631,1.8654,0.4905s0.9839,0.7833,1.3013,1.3679v-5.0701H127.9326z M125.6656,84.9056c0.4706-0.2771,0.8424-0.6641,1.1148-1.1598c0.2724-0.4951,0.4092-1.0604,0.4092-1.6947 s-0.1368-1.199-0.4092-1.6947c-0.2724-0.4957-0.6442-0.8821-1.1148-1.1598c-0.4712-0.2771-1.0037-0.4162-1.5983-0.4162 c-0.5945,0-1.1277,0.1391-1.5983,0.4162c-0.4706,0.2777-0.8424,0.6641-1.1148,1.1598c-0.273,0.4957-0.4092,1.0604-0.4092,1.6947 s0.1362,1.1996,0.4092,1.6947c0.2724,0.4957,0.6442,0.8827,1.1148,1.1598c0.4706,0.2777,1.0037,0.4162,1.5983,0.4162 C124.6619,85.3218,125.1944,85.1833,125.6656,84.9056z"/><path d="M135.3662,85.7088c-0.5647-0.1882-1.0061-0.4262-1.3229-0.7138l0.3414-0.5951c0.3174,0.2677,0.7261,0.4911,1.2271,0.6694 c0.5004,0.1783,1.023,0.2677,1.5685,0.2677c0.7828,0,1.3603-0.1286,1.7321-0.387c0.3712-0.2572,0.5571-0.6144,0.5571-1.0704 c0-0.3268-0.1017-0.5846-0.3046-0.7728c-0.2034-0.1882-0.4536-0.3274-0.7506-0.4162c-0.2975-0.0894-0.7091-0.1836-1.2341-0.2824 c-0.615-0.1093-1.1101-0.228-1.4872-0.3572c-0.3765-0.1286-0.6986-0.3367-0.9663-0.6243c-0.2672-0.287-0.401-0.684-0.401-1.189 c0-0.615,0.2549-1.123,0.7652-1.524c0.5109-0.4016,1.2364-0.6021,2.1782-0.6021c0.4957,0,0.9862,0.0696,1.472,0.2081 c0.4858,0.1385,0.8821,0.3221,1.1896,0.5501l-0.342,0.5945c-0.3174-0.228-0.6793-0.4016-1.0856-0.5203 c-0.4063-0.1193-0.8225-0.1783-1.2487-0.1783c-0.7237,0-1.2691,0.1339-1.6357,0.401c-0.3665,0.2677-0.5501,0.6197-0.5501,1.0558 c0,0.3472,0.104,0.6173,0.3122,0.8102c0.2081,0.1935,0.4636,0.3373,0.7658,0.4314s0.7261,0.1958,1.2715,0.3046 c0.6045,0.1093,1.0926,0.2257,1.4644,0.3496c0.3712,0.1239,0.6863,0.3244,0.9441,0.6021 c0.2572,0.2777,0.3864,0.6588,0.3864,1.1446c0,0.6442-0.2677,1.1598-0.8026,1.5462c-0.5355,0.3864-1.289,0.5799-2.26,0.5799 C136.5261,85.9912,135.931,85.8971,135.3662,85.7088z"/><path d="M143.4984,85.4855c-0.5945-0.3367-1.0604-0.805-1.3972-1.4048c-0.3373-0.5998-0.5057-1.2762-0.5057-2.0297 c0-0.7629,0.1684-1.4445,0.5057-2.0443c0.3367-0.5992,0.8026-1.0651,1.3972-1.3972c0.5951-0.332,1.2691-0.4981,2.0221-0.4981 c0.6243,0,1.192,0.1216,1.7023,0.3642c0.5103,0.2426,0.9242,0.5969,1.2417,1.0628l-0.5501,0.4016 c-0.2777-0.3864-0.622-0.6764-1.0335-0.8699c-0.411-0.1935-0.8646-0.29-1.3603-0.29c-0.6045,0-1.147,0.1362-1.6281,0.4092 c-0.4805,0.2724-0.857,0.6565-1.1294,1.1522c-0.273,0.4957-0.4092,1.0651-0.4092,1.7093c0,0.6448,0.1362,1.2142,0.4092,1.7099 c0.2724,0.4957,0.6489,0.8798,1.1294,1.1522c0.4811,0.2724,1.0236,0.4086,1.6281,0.4086c0.4957,0,0.9494-0.0965,1.3603-0.29 c0.4115-0.1929,0.7559-0.4829,1.0335-0.8693l0.5501,0.401c-0.3174,0.4659-0.7313,0.8202-1.2417,1.0634 c-0.5103,0.2426-1.078,0.3642-1.7023,0.3642C144.7676,85.9912,144.0935,85.8228,143.4984,85.4855z"/><path d="M150.7836,76.1117c-0.1187-0.114-0.1783-0.2549-0.1783-0.4238c0-0.1684,0.0596-0.3122,0.1783-0.4308 c0.1193-0.1193,0.2625-0.1783,0.4314-0.1783c0.1684,0,0.3122,0.0567,0.4308,0.1707c0.1193,0.114,0.1783,0.2555,0.1783,0.4238 c0,0.1684-0.059,0.3122-0.1783,0.4308c-0.1187,0.1193-0.2625,0.1789-0.4308,0.1789 C151.046,76.283,150.9028,76.2257,150.7836,76.1117z M150.8432,78.1706h0.743v7.761h-0.743V78.1706z"/><path d="M161.4283,82.2294h-6.6754c0.0199,0.605,0.1736,1.1429,0.4612,1.6135c0.287,0.4706,0.6764,0.8348,1.1668,1.0926 c0.4905,0.2578,1.0429,0.3864,1.6579,0.3864c0.5057,0,0.9739-0.0912,1.4048-0.2748c0.4314-0.1836,0.7904-0.4536,1.078-0.8102 l0.4314,0.4905c-0.3373,0.4063-0.7611,0.7185-1.2715,0.9365c-0.5103,0.2181-1.0628,0.3274-1.6579,0.3274 c-0.7728,0-1.4621-0.1684-2.0665-0.5057c-0.6045-0.3367-1.0774-0.8026-1.4194-1.3977c-0.342-0.5945-0.5133-1.2732-0.5133-2.0367 c0-0.7529,0.1613-1.4293,0.4834-2.0291c0.3215-0.5998,0.7652-1.068,1.3305-1.4053c0.5647-0.3367,1.199-0.5051,1.9028-0.5051 s1.3358,0.166,1.8958,0.4981c0.5594,0.332,1.0008,0.795,1.3229,1.3901c0.3221,0.5945,0.4835,1.2686,0.4835,2.0215 L161.4283,82.2294z M156.2693,79.1299c-0.4361,0.2426-0.7857,0.5846-1.0482,1.026c-0.2625,0.4408-0.4139,0.9388-0.453,1.4942 h5.947c-0.0298-0.5554-0.1789-1.0505-0.446-1.4872c-0.2677-0.4361-0.6197-0.7775-1.0558-1.0254 c-0.4361-0.2479-0.9272-0.3718-1.472-0.3718S156.7054,78.8873,156.2693,79.1299z"/><path d="M169.9913,78.9586c0.5647,0.5653,0.8477,1.3779,0.8477,2.4383v4.5346h-0.7436v-4.475 c0-0.8722-0.221-1.5363-0.6618-1.9923s-1.0581-0.684-1.8508-0.684c-0.912,0-1.6304,0.273-2.156,0.8178 c-0.5255,0.5454-0.788,1.2785-0.788,2.2004v4.133h-0.743v-7.761h0.7138v1.6801c0.2672-0.5448,0.6664-0.971,1.1966-1.2785 c0.5302-0.3069,1.1569-0.4607,1.8806-0.4607C168.6579,78.1115,169.4266,78.3939,169.9913,78.9586z"/><path d="M175.1199,85.4855c-0.5945-0.3367-1.0604-0.805-1.3972-1.4048c-0.3373-0.5998-0.5057-1.2762-0.5057-2.0297 c0-0.7629,0.1684-1.4445,0.5057-2.0443c0.3367-0.5992,0.8026-1.0651,1.3972-1.3972c0.5951-0.332,1.2691-0.4981,2.0221-0.4981 c0.6243,0,1.192,0.1216,1.7023,0.3642c0.5103,0.2426,0.9242,0.5969,1.2417,1.0628l-0.5501,0.4016 c-0.2777-0.3864-0.622-0.6764-1.0336-0.8699c-0.411-0.1935-0.8646-0.29-1.3603-0.29c-0.6045,0-1.147,0.1362-1.6281,0.4092 c-0.4805,0.2724-0.857,0.6565-1.1294,1.1522c-0.273,0.4957-0.4092,1.0651-0.4092,1.7093c0,0.6448,0.1362,1.2142,0.4092,1.7099 c0.2724,0.4957,0.6489,0.8798,1.1294,1.1522c0.4811,0.2724,1.0236,0.4086,1.6281,0.4086c0.4957,0,0.9494-0.0965,1.3603-0.29 c0.4115-0.1929,0.7559-0.4829,1.0336-0.8693l0.5501,0.401c-0.3174,0.4659-0.7313,0.8202-1.2417,1.0634 c-0.5103,0.2426-1.078,0.3642-1.7023,0.3642C176.389,85.9912,175.715,85.8228,175.1199,85.4855z"/><path d="M188.8875,82.2294h-6.6754c0.0199,0.605,0.1736,1.1429,0.4612,1.6135c0.287,0.4706,0.6764,0.8348,1.1668,1.0926 s1.0429,0.3864,1.6579,0.3864c0.5057,0,0.9739-0.0912,1.4048-0.2748c0.4314-0.1836,0.7904-0.4536,1.078-0.8102l0.4314,0.4905 c-0.3373,0.4063-0.7611,0.7185-1.2715,0.9365c-0.5103,0.2181-1.0628,0.3274-1.6579,0.3274c-0.7728,0-1.4621-0.1684-2.0665-0.5057 c-0.6045-0.3367-1.0774-0.8026-1.4194-1.3977c-0.342-0.5945-0.5133-1.2732-0.5133-2.0367c0-0.7529,0.1613-1.4293,0.4834-2.0291 c0.3215-0.5998,0.7652-1.068,1.3305-1.4053c0.5647-0.3367,1.199-0.5051,1.9028-0.5051s1.3358,0.166,1.8958,0.4981 c0.5594,0.332,1.0008,0.795,1.3229,1.3901c0.3221,0.5945,0.4834,1.2686,0.4834,2.0215L188.8875,82.2294z M183.7285,79.1299 c-0.4361,0.2426-0.7857,0.5846-1.0482,1.026c-0.2625,0.4408-0.4139,0.9388-0.453,1.4942h5.947 c-0.0298-0.5554-0.1789-1.0505-0.446-1.4872c-0.2677-0.4361-0.6197-0.7775-1.0558-1.0254 c-0.4361-0.2479-0.9272-0.3718-1.472-0.3718S184.1646,78.8873,183.7285,79.1299z"/><path d="M191.5339,85.7088c-0.5647-0.1882-1.0061-0.4262-1.3229-0.7138l0.3414-0.5951c0.3174,0.2677,0.7261,0.4911,1.2271,0.6694 c0.5004,0.1783,1.023,0.2677,1.5685,0.2677c0.7828,0,1.3603-0.1286,1.7321-0.387c0.3712-0.2572,0.5571-0.6144,0.5571-1.0704 c0-0.3268-0.1017-0.5846-0.3046-0.7728c-0.2034-0.1882-0.4536-0.3274-0.7506-0.4162c-0.2975-0.0894-0.7091-0.1836-1.2341-0.2824 c-0.615-0.1093-1.1101-0.228-1.4872-0.3572c-0.3765-0.1286-0.6986-0.3367-0.9663-0.6243c-0.2672-0.287-0.401-0.684-0.401-1.189 c0-0.615,0.2549-1.123,0.7652-1.524c0.5109-0.4016,1.2364-0.6021,2.1782-0.6021c0.4957,0,0.9862,0.0696,1.472,0.2081 c0.4858,0.1385,0.8821,0.3221,1.1896,0.5501l-0.342,0.5945c-0.3174-0.228-0.6793-0.4016-1.0856-0.5203 c-0.4063-0.1193-0.8225-0.1783-1.2487-0.1783c-0.7237,0-1.2691,0.1339-1.6357,0.401c-0.3665,0.2677-0.5501,0.6197-0.5501,1.0558 c0,0.3472,0.104,0.6173,0.3122,0.8102c0.2081,0.1935,0.4636,0.3373,0.7658,0.4314s0.7261,0.1958,1.2715,0.3046 c0.6045,0.1093,1.0926,0.2257,1.4644,0.3496c0.3712,0.1239,0.6863,0.3244,0.9441,0.6021 c0.2572,0.2777,0.3864,0.6588,0.3864,1.1446c0,0.6442-0.2677,1.1598-0.8026,1.5462c-0.5355,0.3864-1.289,0.5799-2.26,0.5799 C192.6937,85.9912,192.0986,85.8971,191.5339,85.7088z"/></g></g><path id="Bildmarke" class="st0" d="M197.0351,17.8596c0-3.6422-2.7286-6.6452-6.2529-7.0808 c-0.3817-0.0472-0.7242,0.2311-0.7242,0.6156c0,2.1973,0,9.3207,0,13.9046c0,4.1799-3.1486,7.8245-7.3191,8.1054 c-4.5684,0.3077-8.3718-3.289-8.4068-7.7831c0.0001-0.0204-0.0016-7.7618-0.0016-7.7618c0-3.6422-2.7286-6.6452-6.2529-7.0808 c-0.3817-0.0472-0.7242,0.2378-0.7242,0.6223l0,14.1581c-0.0048,4.8583-4.4133,8.6872-9.449,7.7064 c-3.0666-0.5973-5.5371-3.0694-6.1323-6.1364c-0.9773-5.0362,2.8536-9.4438,7.714-9.4438c2.2038,0,4.1951,0.9067,5.6231,2.3669 c0.2671,0.2731,0.7245,0.0917,0.7245-0.2903v-7.217c0-0.248-0.1439-0.4778-0.3708-0.5777 c-1.8288-0.8056-3.8501-1.2543-5.9768-1.2543c-2.8904,0-5.5858,0.8287-7.8672,2.2574V8.983c0-3.6439-2.7299-6.6483-6.2559-7.0839 c-0.3817-0.0472-0.7243,0.2378-0.7243,0.6223v23.0939c0.0297,8.1747,6.6658,14.7927,14.8474,14.7927 c4.5568,0,8.632-2.0547,11.3556-5.286c2.7224,3.2312,6.7966,5.2859,11.3525,5.2859c3.43,0,6.5856-1.1667,9.0988-3.1207 c1.131,1.6593,2.9435,2.8169,5.035,3.0703c0.3802,0.0461,0.707-0.2753,0.707-0.6584V17.8596z"/></g></svg>