<?xml version="1.0" encoding="UTF-8"?><svg xmlns="http://www.w3.org/2000/svg" xmlns:xlink="http://www.w3.org/1999/xlink" version="1.1" id="Ebene_1" x="0px" y="0px" viewBox="0 0 141.7 104.9" style="enable-background:new 0 0 141.7 104.9;" xml:space="preserve"><style type="text/css">.st0{fill:#63AE26;}</style><path class="st0" d="M140.3,43.7c0-9.7-7.3-17.7-16.7-18.8c-1-0.1-1.8,0.6-1.8,1.7v37c0,11.3-8.8,20.9-20,21.3 C90,85.4,80.2,76,80.1,64.3l0-20.6c0-9.7-7.3-17.7-16.7-18.8c-1-0.1-1.8,0.6-1.8,1.7v37.5c0,11.9-10,21.4-22,20.8 C29.1,84.4,20.5,75.8,20,65.2c-0.6-12,8.9-22,20.8-22c5.8,0,11.1,2.4,14.9,6.2c0.7,0.7,2,0.2,2-0.8V29.6c0-0.7-0.4-1.3-1-1.6 c-4.8-2.1-10.2-3.3-15.8-3.3c-7.7,0-14.8,2.2-20.9,6V20.2c0-9.7-7.3-17.7-16.7-18.8C2.2,1.3,1.4,2,1.4,3.1l0,61.2 c0.1,21.7,17.7,39.2,39.4,39.2c12.1,0,22.9-5.4,30.1-14c7.2,8.6,18,14,30.1,14c9.1,0,17.5-3.1,24.1-8.3c3,4.4,7.8,7.5,13.4,8.1 c1,0.1,1.8-0.6,1.8-1.7L140.3,43.7L140.3,43.7z"/></svg>